<svg width="30" height="30" viewBox="0 0 30 30" fill="none" xmlns="http://www.w3.org/2000/svg">
<path d="M25.1603 1.05714H13.4703L13.4358 0.966968C13.2113 0.384677 12.6511 0 12.0266 0H5.10719C3.79583 0 2.6936 1.04083 2.6936 2.35219V27.6469C2.6936 28.9563 3.79487 30 5.10719 30H23.1045C23.3875 30 23.6513 29.8599 23.8105 29.6288C23.9698 29.3966 24.0053 29.1002 23.9065 28.8383H25.1612C26.3747 28.8383 27.3062 27.8589 27.3062 26.6463V3.2568C27.3053 2.04426 26.3728 1.05714 25.1603 1.05714ZM24.8773 26.3038H22.9683L21.8987 23.4768C22.4829 23.3703 22.9232 22.8734 22.9232 22.2585C22.9232 21.5649 22.363 21.022 21.6675 21.022H20.9682L20.0933 18.6986H21.8804C22.574 18.6986 23.1342 18.123 23.1342 17.4304C23.1342 16.7378 22.574 16.1641 21.8804 16.1641H19.156L18.2812 13.8397H21.8804C22.574 13.8397 23.1342 13.3169 23.1342 12.6253C23.1342 11.9317 22.574 11.4089 21.8804 11.4089H17.3439L16.4691 9.08643H21.8804C22.574 9.08643 23.1342 8.51086 23.1342 7.81825C23.1342 7.12659 22.574 6.55198 21.8804 6.55198H15.5328L14.4066 3.59352H24.8763V26.3038H24.8773Z" fill="#0084F4"/>
</svg>
