<svg width="28" height="30" viewBox="0 0 28 30" fill="none" xmlns="http://www.w3.org/2000/svg">
<g clip-path="url(#clip0)">
<path d="M1.61594 29.4572H17.4206C15.8703 28.5265 14.7128 27.0619 14.1656 25.3384C13.6183 23.6149 13.7188 21.7509 14.4482 20.0963C15.1776 18.4416 16.4857 17.11 18.1272 16.3513C19.7686 15.5926 21.6305 15.459 23.3635 15.9755V6.11843H19.6505C18.9473 6.11764 18.2732 5.83796 17.776 5.34076C17.2788 4.84356 16.9991 4.16944 16.9983 3.46629V-0.246704H1.61594C1.19406 -0.246213 0.789594 -0.0784025 0.491277 0.219914C0.19296 0.518231 0.0251495 0.922695 0.0246582 1.34458V27.866C0.0251495 28.2878 0.19296 28.6923 0.491277 28.9906C0.789594 29.2889 1.19406 29.4568 1.61594 29.4572V29.4572ZM11.1636 25.2138H9.04193C8.90125 25.2138 8.76633 25.1579 8.66686 25.0585C8.56738 24.959 8.5115 24.8241 8.5115 24.6834C8.5115 24.5427 8.56738 24.4078 8.66686 24.3083C8.76633 24.2089 8.90125 24.153 9.04193 24.153H11.1636C11.3043 24.153 11.4392 24.2089 11.5387 24.3083C11.6382 24.4078 11.6941 24.5427 11.6941 24.6834C11.6941 24.8241 11.6382 24.959 11.5387 25.0585C11.4392 25.1579 11.3043 25.2138 11.1636 25.2138ZM11.1636 22.0313H7.98107C7.84039 22.0313 7.70548 21.9754 7.606 21.8759C7.50653 21.7764 7.45064 21.6415 7.45064 21.5008C7.45064 21.3602 7.50653 21.2252 7.606 21.1258C7.70548 21.0263 7.84039 20.9704 7.98107 20.9704H11.1636C11.3043 20.9704 11.4392 21.0263 11.5387 21.1258C11.6382 21.2252 11.6941 21.3602 11.6941 21.5008C11.6941 21.6415 11.6382 21.7764 11.5387 21.8759C11.4392 21.9754 11.3043 22.0313 11.1636 22.0313ZM15.4071 15.6661H11.1636C11.023 15.6661 10.888 15.6102 10.7886 15.5108C10.6891 15.4113 10.6332 15.2764 10.6332 15.1357C10.6332 14.995 10.6891 14.8601 10.7886 14.7606C10.888 14.6612 11.023 14.6053 11.1636 14.6053H15.4071C15.5477 14.6053 15.6827 14.6612 15.7821 14.7606C15.8816 14.8601 15.9375 14.995 15.9375 15.1357C15.9375 15.2764 15.8816 15.4113 15.7821 15.5108C15.6827 15.6102 15.5477 15.6661 15.4071 15.6661ZM20.7113 12.4836H15.4071C15.2664 12.4836 15.1315 12.4277 15.032 12.3282C14.9325 12.2287 14.8766 12.0938 14.8766 11.9531C14.8766 11.8125 14.9325 11.6775 15.032 11.5781C15.1315 11.4786 15.2664 11.4227 15.4071 11.4227H20.7113C20.852 11.4227 20.9869 11.4786 21.0864 11.5781C21.1859 11.6775 21.2418 11.8125 21.2418 11.9531C21.2418 12.0938 21.1859 12.2287 21.0864 12.3282C20.9869 12.4277 20.852 12.4836 20.7113 12.4836ZM20.7113 8.24014C20.852 8.24014 20.9869 8.29602 21.0864 8.3955C21.1859 8.49497 21.2418 8.62989 21.2418 8.77057C21.2418 8.91124 21.1859 9.04616 21.0864 9.14564C20.9869 9.24511 20.852 9.30099 20.7113 9.30099H7.98107C7.84039 9.30099 7.70548 9.24511 7.606 9.14564C7.50653 9.04616 7.45064 8.91124 7.45064 8.77057C7.45064 8.62989 7.50653 8.49497 7.606 8.3955C7.70548 8.29602 7.84039 8.24014 7.98107 8.24014H20.7113ZM2.6768 5.05757H9.04193C9.18261 5.05757 9.31752 5.11346 9.417 5.21293C9.51647 5.31241 9.57235 5.44732 9.57235 5.588C9.57235 5.72868 9.51647 5.86359 9.417 5.96307C9.31752 6.06254 9.18261 6.11843 9.04193 6.11843H2.6768C2.53612 6.11843 2.4012 6.06254 2.30173 5.96307C2.20225 5.86359 2.14637 5.72868 2.14637 5.588C2.14637 5.44732 2.20225 5.31241 2.30173 5.21293C2.4012 5.11346 2.53612 5.05757 2.6768 5.05757V5.05757ZM2.6768 8.24014H5.85936C6.00004 8.24014 6.13496 8.29602 6.23443 8.3955C6.33391 8.49497 6.38979 8.62989 6.38979 8.77057C6.38979 8.91124 6.33391 9.04616 6.23443 9.14564C6.13496 9.24511 6.00004 9.30099 5.85936 9.30099H2.6768C2.53612 9.30099 2.4012 9.24511 2.30173 9.14564C2.20225 9.04616 2.14637 8.91124 2.14637 8.77057C2.14637 8.62989 2.20225 8.49497 2.30173 8.3955C2.4012 8.29602 2.53612 8.24014 2.6768 8.24014V8.24014ZM2.6768 11.4227H13.2853C13.426 11.4227 13.5609 11.4786 13.6604 11.5781C13.7599 11.6775 13.8158 11.8125 13.8158 11.9531C13.8158 12.0938 13.7599 12.2287 13.6604 12.3282C13.5609 12.4277 13.426 12.4836 13.2853 12.4836H2.6768C2.53612 12.4836 2.4012 12.4277 2.30173 12.3282C2.20225 12.2287 2.14637 12.0938 2.14637 11.9531C2.14637 11.8125 2.20225 11.6775 2.30173 11.5781C2.4012 11.4786 2.53612 11.4227 2.6768 11.4227V11.4227ZM2.6768 14.6053H9.04193C9.18261 14.6053 9.31752 14.6612 9.417 14.7606C9.51647 14.8601 9.57235 14.995 9.57235 15.1357C9.57235 15.2764 9.51647 15.4113 9.417 15.5108C9.31752 15.6102 9.18261 15.6661 9.04193 15.6661H2.6768C2.53612 15.6661 2.4012 15.6102 2.30173 15.5108C2.20225 15.4113 2.14637 15.2764 2.14637 15.1357C2.14637 14.995 2.20225 14.8601 2.30173 14.7606C2.4012 14.6612 2.53612 14.6053 2.6768 14.6053V14.6053ZM2.6768 17.7878H12.2245C12.3652 17.7878 12.5001 17.8437 12.5996 17.9432C12.699 18.0427 12.7549 18.1776 12.7549 18.3183C12.7549 18.4589 12.699 18.5939 12.5996 18.6933C12.5001 18.7928 12.3652 18.8487 12.2245 18.8487H2.6768C2.53612 18.8487 2.4012 18.7928 2.30173 18.6933C2.20225 18.5939 2.14637 18.4589 2.14637 18.3183C2.14637 18.1776 2.20225 18.0427 2.30173 17.9432C2.4012 17.8437 2.53612 17.7878 2.6768 17.7878V17.7878ZM2.6768 20.9704H5.85936C6.00004 20.9704 6.13496 21.0263 6.23443 21.1258C6.33391 21.2252 6.38979 21.3602 6.38979 21.5008C6.38979 21.6415 6.33391 21.7764 6.23443 21.8759C6.13496 21.9754 6.00004 22.0313 5.85936 22.0313H2.6768C2.53612 22.0313 2.4012 21.9754 2.30173 21.8759C2.20225 21.7764 2.14637 21.6415 2.14637 21.5008C2.14637 21.3602 2.20225 21.2252 2.30173 21.1258C2.4012 21.0263 2.53612 20.9704 2.6768 20.9704V20.9704ZM2.6768 24.153H6.92022C7.06089 24.153 7.19581 24.2089 7.29529 24.3083C7.39476 24.4078 7.45064 24.5427 7.45064 24.6834C7.45064 24.8241 7.39476 24.959 7.29529 25.0585C7.19581 25.1579 7.06089 25.2138 6.92022 25.2138H2.6768C2.53612 25.2138 2.4012 25.1579 2.30173 25.0585C2.20225 24.959 2.14637 24.8241 2.14637 24.6834C2.14637 24.5427 2.20225 24.4078 2.30173 24.3083C2.4012 24.2089 2.53612 24.153 2.6768 24.153V24.153ZM18.0592 3.46629V0.503387L22.6134 5.05757H19.6505C19.2286 5.0571 18.8241 4.88929 18.5258 4.59097C18.2275 4.29265 18.0597 3.88818 18.0592 3.46629V3.46629ZM21.2418 16.727C19.9829 16.727 18.7522 17.1003 17.7055 17.7997C16.6587 18.4991 15.8429 19.4932 15.3611 20.6563C14.8794 21.8194 14.7533 23.0992 14.9989 24.3339C15.2445 25.5686 15.8508 26.7028 16.7409 27.5929C17.6311 28.4831 18.7653 29.0893 20 29.3349C21.2347 29.5805 22.5145 29.4545 23.6776 28.9727C24.8407 28.491 25.8348 27.6751 26.5342 26.6284C27.2336 25.5816 27.6069 24.351 27.6069 23.0921C27.605 21.4046 26.9338 19.7867 25.7405 18.5934C24.5472 17.4001 22.9293 16.7289 21.2418 16.727V16.727ZM25.4339 25.4414C25.073 26.2021 24.4941 26.8382 23.7707 27.2689C23.0473 27.6995 22.2122 27.9053 21.3715 27.86C20.5309 27.8147 19.7227 27.5203 19.0498 27.0144C18.3769 26.5084 17.8697 25.8138 17.5928 25.0188L17.2665 25.5081C17.1881 25.6243 17.0669 25.7048 16.9294 25.7319C16.7919 25.759 16.6492 25.7306 16.5325 25.6528C16.4159 25.575 16.3348 25.4542 16.3069 25.3168C16.2791 25.1795 16.3068 25.0366 16.3839 24.9196L17.4448 23.3283C17.5228 23.2112 17.6441 23.13 17.7821 23.1024C17.92 23.0748 18.0633 23.1032 18.1803 23.1812L19.7716 24.2421C19.8871 24.3208 19.9669 24.4419 19.9937 24.579C20.0204 24.7162 19.9919 24.8584 19.9144 24.9747C19.8368 25.091 19.7165 25.172 19.5796 25.2001C19.4427 25.2282 19.3002 25.2011 19.1832 25.1247L18.6244 24.7522C18.8458 25.3356 19.2339 25.8411 19.7403 26.2057C20.2467 26.5703 20.8491 26.778 21.4727 26.803C22.0962 26.8279 22.7133 26.669 23.2472 26.346C23.7812 26.0229 24.2083 25.5501 24.4756 24.9862C24.536 24.8591 24.6444 24.7613 24.7769 24.7141C24.9095 24.6669 25.0553 24.6743 25.1824 24.7347C25.3094 24.7951 25.4073 24.9035 25.4545 25.036C25.5016 25.1685 25.4942 25.3144 25.4339 25.4414V25.4414ZM25.0388 22.8556C24.9607 22.9727 24.8394 23.0539 24.7014 23.0815C24.5635 23.1091 24.4202 23.0807 24.3032 23.0027L22.7119 21.9418C22.5964 21.8631 22.5166 21.742 22.4899 21.6049C22.4631 21.4677 22.4916 21.3255 22.5692 21.2092C22.6467 21.0929 22.767 21.0119 22.9039 20.9838C23.0408 20.9557 23.1833 20.9828 23.3004 21.0592L23.8592 21.4317C23.6377 20.8482 23.2497 20.3428 22.7432 19.9782C22.2368 19.6136 21.6344 19.4059 21.0108 19.3809C20.3873 19.356 19.7702 19.5149 19.2363 19.8379C18.7024 20.161 18.2752 20.6338 18.0079 21.1977C17.9475 21.3248 17.8391 21.4226 17.7066 21.4698C17.5741 21.517 17.4282 21.5095 17.3011 21.4492C17.1741 21.3888 17.0762 21.2804 17.029 21.1479C16.9819 21.0154 16.9893 20.8695 17.0497 20.7425C17.4105 19.9818 17.9894 19.3457 18.7128 18.915C19.4362 18.4844 20.2713 18.2786 21.112 18.3239C21.9526 18.3692 22.7608 18.6636 23.4337 19.1695C24.1066 19.6755 24.6138 20.3701 24.8908 21.1651L25.217 20.6758C25.2954 20.5596 25.4166 20.4791 25.5541 20.452C25.6917 20.4249 25.8344 20.4533 25.951 20.5311C26.0676 20.6089 26.1487 20.7297 26.1766 20.867C26.2044 21.0044 26.1768 21.1473 26.0996 21.2643L25.0388 22.8556Z" fill="#F24E1E"/>
</g>
<defs>
<clipPath id="clip0">
<rect width="27.6316" height="30" fill="white"/>
</clipPath>
</defs>
</svg>
