<svg width="30" height="30" viewBox="0 0 30 30" fill="none" xmlns="http://www.w3.org/2000/svg">
<g clip-path="url(#clip0)">
<path d="M11.5723 15.1654C11.3859 15.2907 11.2943 15.546 11.38 15.701C11.532 15.9754 12.015 16.1183 12.5605 16.3456C12.7878 16.0388 13.0329 15.7461 13.2941 15.4685C13.0516 15.4939 12.7997 15.4197 12.6064 15.2413C12.4066 15.0572 11.8381 14.9867 11.5723 15.1654V15.1654Z" fill="#BE52F2"/>
<path d="M14.2529 5.43909H9.68262C9.19195 5.43909 8.80664 5.84192 8.80664 6.315C8.80664 6.79799 9.19963 7.19098 9.68262 7.19098H14.2529C14.736 7.19098 15.1289 6.79799 15.1289 6.315C15.1289 5.8401 14.7426 5.43909 14.2529 5.43909Z" fill="#BE52F2"/>
<path d="M10.7123 21.1231C10.375 21.0197 10.0642 20.8763 9.80736 20.7083C9.40119 20.4425 9.28734 19.8977 9.55307 19.4916C9.81879 19.0853 10.3635 18.9713 10.7698 19.2373C10.854 19.2924 10.9491 19.3405 11.0502 19.3815C11.2034 18.8575 11.4 18.3518 11.6356 17.8685C11.0285 17.6287 10.2732 17.3302 9.84252 16.5526C9.22559 15.4388 9.78 13.9495 11.0497 13.4729V13.3433C11.0497 12.8579 11.4432 12.4644 11.9286 12.4644C12.414 12.4644 12.8075 12.8579 12.8075 13.3433V13.4141C13.4795 13.6028 14.1764 14.0421 14.071 14.7293C15.5526 13.4671 17.4182 12.6428 19.466 12.4599C18.312 10.8992 17.076 9.51575 16.0497 8.23823C15.5787 8.67851 14.947 8.9488 14.2529 8.9488H9.68262C8.98646 8.9488 8.35301 8.67681 7.88162 8.23413C5.58146 11.0959 1.75781 15.0428 1.75781 18.7482C1.75781 21.9316 3.20684 24.2513 5.94844 25.456C7.8709 26.3009 10.0061 26.4451 11.7076 26.4568C10.866 24.8017 10.5295 22.9564 10.7123 21.1231V21.1231Z" fill="#BE52F2"/>
<path d="M8.75371 3.8509C9.04275 3.74162 9.35564 3.68127 9.68248 3.68127H14.2528C14.5797 3.68127 14.8927 3.74162 15.1817 3.85096C15.7834 3.13189 16.0853 3.3327 16.3528 2.86816C17.0885 1.59381 16.1702 0 14.6969 0H9.23833C7.76757 0 6.84566 1.59182 7.58248 2.86816C7.84738 3.32824 8.15218 3.13236 8.75371 3.8509V3.8509Z" fill="#BE52F2"/>
<path d="M20.332 14.1797C15.9704 14.1797 12.4219 17.7282 12.4219 22.0898C12.4219 26.4515 15.9704 30 20.332 30C24.6937 30 28.2422 26.4515 28.2422 22.0898C28.2422 17.7282 24.6937 14.1797 20.332 14.1797ZM17.7867 19.5462C18.1287 19.2041 18.6834 19.2041 19.0254 19.5462C19.3675 19.8882 19.3675 20.4429 19.0254 20.785C18.6834 21.1271 18.1287 21.1271 17.7867 20.785C17.4446 20.4429 17.4446 19.8883 17.7867 19.5462ZM22.7585 24.518C22.4164 24.8601 21.8618 24.8601 21.5197 24.518C21.1777 24.176 21.1777 23.6213 21.5197 23.2792C21.8618 22.9372 22.4164 22.9372 22.7585 23.2792C23.1006 23.6213 23.1006 24.176 22.7585 24.518ZM22.7999 20.8347L19.071 24.5636C18.7278 24.9068 18.1714 24.9069 17.8281 24.5636C17.4848 24.2204 17.4848 23.6639 17.8281 23.3207L21.557 19.5918C21.9002 19.2486 22.4567 19.2486 22.7999 19.5918C23.1432 19.935 23.1432 20.4915 22.7999 20.8347Z" fill="#BE52F2"/>
</g>
<defs>
<clipPath id="clip0">
<rect width="30" height="30" fill="white"/>
</clipPath>
</defs>
</svg>
