<svg width="30" height="30" viewBox="0 0 30 30" fill="none" xmlns="http://www.w3.org/2000/svg">
<path d="M19.6875 1.875H17.6512C17.265 0.78375 16.2225 0 15 0C13.7775 0 12.735 0.78375 12.3469 1.875H10.3125C9.795 1.875 9.375 2.295 9.375 2.8125V6.5625C9.375 7.08 9.795 7.5 10.3125 7.5H19.6875C20.205 7.5 20.625 7.08 20.625 6.5625V2.8125C20.625 2.295 20.205 1.875 19.6875 1.875Z" fill="black"/>
<path d="M24.375 3.75H22.5V6.5625C22.5 8.11313 21.2381 9.375 19.6875 9.375H10.3125C8.76187 9.375 7.5 8.11313 7.5 6.5625V3.75H5.625C4.59188 3.75 3.75 4.59188 3.75 5.625V28.125C3.75 29.1769 4.57313 30 5.625 30H24.375C25.4269 30 26.25 29.1769 26.25 28.125V5.625C26.25 4.57313 25.4269 3.75 24.375 3.75ZM14.7263 20.3513L10.9763 24.1013C10.7925 24.2831 10.5525 24.375 10.3125 24.375C10.0725 24.375 9.8325 24.2831 9.64875 24.1013L7.77375 22.2263C7.40812 21.8606 7.40812 21.2663 7.77375 20.9006C8.13937 20.535 8.73375 20.535 9.09938 20.9006L10.3125 22.1119L13.3987 19.0256C13.7644 18.66 14.3588 18.66 14.7244 19.0256C15.09 19.3913 15.0919 19.9838 14.7263 20.3513ZM14.7263 12.8513L10.9763 16.6013C10.7925 16.7831 10.5525 16.875 10.3125 16.875C10.0725 16.875 9.8325 16.7831 9.64875 16.6013L7.77375 14.7263C7.40812 14.3606 7.40812 13.7662 7.77375 13.4006C8.13937 13.035 8.73375 13.035 9.09938 13.4006L10.3125 14.6119L13.3987 11.5256C13.7644 11.16 14.3588 11.16 14.7244 11.5256C15.09 11.8912 15.0919 12.4838 14.7263 12.8513ZM21.5625 22.5H17.8125C17.295 22.5 16.875 22.08 16.875 21.5625C16.875 21.045 17.295 20.625 17.8125 20.625H21.5625C22.08 20.625 22.5 21.045 22.5 21.5625C22.5 22.08 22.08 22.5 21.5625 22.5ZM21.5625 15H17.8125C17.295 15 16.875 14.58 16.875 14.0625C16.875 13.545 17.295 13.125 17.8125 13.125H21.5625C22.08 13.125 22.5 13.545 22.5 14.0625C22.5 14.58 22.08 15 21.5625 15Z" fill="black"/>
</svg>
